<svg height="200" viewBox="0 0 1390 1024" width="271.484375" xmlns="http://www.w3.org/2000/svg"><path d="m1279.461328 1023.998758h-73.995772a7.040297 7.040297 0 1 1 0-14.080594h73.995772a7.040297 7.040297 0 1 1 0 14.080594zm-127.810766 0h-984.305341a7.040297 7.040297 0 1 1 0-14.080594h984.305341a7.040297 7.040297 0 1 1 0 14.080594zm-1016.38719 0h-23.803382a7.040297 7.040297 0 1 1 0-14.080594h23.803382a7.040297 7.040297 0 1 1 0 14.080594z" fill="#7ecafc"/><path d="m149.356386 496.232292c-.699186-7.821449-7.606601-13.593772-15.426808-12.894585a14.627028 14.627028 0 0 0 -9.558858 5.065685 13.660834 13.660834 0 0 0 -3.179249 10.316414 14.6084 14.6084 0 0 0 5.1402 9.558859 13.088321 13.088321 0 0 0 9.003731 3.381677h1.126398c7.820207-.700428 13.593772-7.606601 12.894586-15.42805zm-8.662211 11.405555a11.529744 11.529744 0 0 1 -12.756735-1.398372 10.561067 10.561067 0 0 1 -4.052301-7.801579 11.539679 11.539679 0 0 1 2.593075-8.488346 10.578453 10.578453 0 0 1 7.821449-4.053542h1.033256a11.447779 11.447779 0 0 1 11.508632 10.475377 11.529744 11.529744 0 0 1 -6.147376 11.266462zm1110.560014-360.485823c-.968677-10.820623-10.527536-18.809727-21.346916-17.84105a20.221761 20.221761 0 0 0 -13.223688 7.008008 18.901627 18.901627 0 0 0 -4.401272 14.27433 20.210584 20.210584 0 0 0 7.113569 13.22493 18.108057 18.108057 0 0 0 12.457439 4.679457h1.558577c10.819381-.966194 18.807243-10.522568 17.842291-21.345675zm-11.986761 15.781989a15.955855 15.955855 0 0 1 -17.652282-1.93487 14.6084 14.6084 0 0 1 -5.608393-10.794543 15.96579 15.96579 0 0 1 3.587832-11.745834 14.639447 14.639447 0 0 1 10.821864-5.608394h1.430662c8.279708-.074514 15.221895 6.241759 15.922324 14.494146a15.945919 15.945919 0 0 1 -8.502007 15.589495zm-996.314456-61.219166a3.055059 3.055059 0 0 1 -3.05506-3.055059v-19.754809l-13.951437 13.95268a3.132057 3.132057 0 0 1 -4.428594-4.427352l13.955163-13.95268h-19.790823a3.06872 3.06872 0 1 1 0-6.138682h19.790823l-13.955163-13.786266a2.915967 2.915967 0 0 1 0-4.427352 2.914725 2.914725 0 0 1 2.215539-1.015869c.850697 0 1.656687.368843 2.213055 1.015869l13.951437 13.818555v-19.757292a3.051334 3.051334 0 0 1 4.693118-3.164346 3.04264 3.04264 0 0 1 1.277909 3.164346v19.757292l14.089288-13.953921a2.918451 2.918451 0 0 1 4.428594 0 2.918451 2.918451 0 0 1 0 4.427352l-13.955163 13.955163h19.75605a3.067478 3.067478 0 1 1 0 6.136198h-19.75605l13.955163 13.956406c.791086.787361 1.097834 1.94108.809715 3.021528a3.138266 3.138266 0 0 1 -2.213055 2.215539 3.134541 3.134541 0 0 1 -3.025254-.813441l-14.089288-13.984969v19.756051c.336553 1.71133-1.372293 3.053817-3.051334 3.053817h.135367zm-32.881629 825.213748h-8.443637v-8.44488c0-1.404582-1.136333-2.540915-2.540915-2.540915s-2.540915 1.136333-2.540916 2.540915v8.44488h-8.443637a2.539673 2.539673 0 1 0 0 5.08183h8.443637v8.443638a2.529738 2.529738 0 0 0 2.528497 2.526012l.02608-.109287a2.521045 2.521045 0 0 0 2.527254-2.528496v-8.330625h8.443637a2.542157 2.542157 0 0 0 0-5.083072zm1021.682626-57.276153c0 16.738248-11.334767 29.903566-25.352025 29.903566 14.05824 0 25.352025 13.391343 25.352025 29.904809 0-16.740732 11.336009-29.904808 25.348299-29.904809-14.05824 0-25.348299-13.386376-25.348299-29.903566zm0 0" fill="#ccc"/><path d="m988.198679 129.231493h-585.648663c-83.281414 0-150.445527 67.164113-150.445527 150.444285v586.993634c0 81.935201 67.164113 149.094346 150.445527 149.094347h586.992392c81.936443 0 149.095588-67.159146 149.095588-150.443044v-585.644937c-.001242-83.280172-67.160387-150.444285-150.439317-150.444285z" fill="#dfeff7"/><path d="m326.618131 866.669412v-586.993634c0-83.280172 67.164113-150.444285 150.445527-150.444285h-74.513642c-83.281414 0-150.445527 67.164113-150.445527 150.444285v586.993634c0 81.935201 67.164113 149.094346 150.445527 149.094347h74.513642c-83.281414 0-150.445527-67.159146-150.445527-149.094347z" fill="#c7e6f9"/><path d="m989.542408 1022.804056h-586.992392c-86.838198 0-157.485824-70.04034-157.485824-156.134644v-586.993634c0-42.158577 16.355744-81.732772 46.054398-111.431426s69.272849-46.054398 111.431426-46.054398h585.648663c42.157335 0 81.73153 16.355744 111.428942 46.054398 29.69617 29.698654 46.050673 69.271607 46.050673 111.431426v326.867752a7.040297 7.040297 0 1 1 -14.080595 0v-326.867752c0-79.072635-64.328869-143.403988-143.39902-143.403988h-585.648663c-79.073877 0-143.403988 64.330111-143.403988 143.403988v586.993634c0 78.327499 64.330111 142.054049 143.403988 142.054049h586.992392c78.328741 0 142.055291-64.330111 142.055291-143.402746v-51.587036a7.040297 7.040297 0 1 1 14.080595 0v51.587036c-.001242 86.836957-70.042824 157.483341-156.135886 157.483341z" fill="#7ecafc"/><path d="m1138.636754 709.003513a7.040297 7.040297 0 0 1 -7.040297-7.040297v-58.989966a7.040297 7.040297 0 1 1 14.080595 0v58.989966a7.040297 7.040297 0 0 1 -7.040298 7.040297z" fill="#7ecafc"/><path d="m984.502802 648.046387-223.966896-344.944762-324.947783 81.988603 197.969086 372.940778z" fill="#b1ddfc"/><path d="m649.672026 774.72703-3.39658-10.456748 310.08107-100.48413 3.387887 10.457989zm4.823516 23.069423-3.477303-10.428184 308.285291-102.782876 3.477304 10.428184zm-1.202153 22.042377-3.482271-10.424458 312.013457-104.212296 3.482271 10.424458z" fill="#fff"/><path d="m985.502527 719.035533-361.945049 121.982558-.999724-67.988731-197.969087-370.943812c-21.996427 16.997804-9.999731 50.992169-9.99973 50.992169l205.966883 409.938043 9.001248-3.998899.998483 2.999174 362.943532-121.981315zm0 0" fill="#b1ddfc"/><path d="m738.517125 308.069202 72.650801 109.210919-34.565637-7.243968-16.559415 28.977114-71.615061-117.565141z" fill="#209afd"/></svg>