<svg height="200" viewBox="0 0 1390 1024" width="271.484375" xmlns="http://www.w3.org/2000/svg"><path d="m1279.461328 1023.998758h-73.995772a7.040297 7.040297 0 1 1 0-14.080594h73.995772a7.040297 7.040297 0 1 1 0 14.080594zm-127.810766 0h-984.305341a7.040297 7.040297 0 1 1 0-14.080594h984.305341a7.040297 7.040297 0 1 1 0 14.080594zm-1016.38719 0h-23.803382a7.040297 7.040297 0 1 1 0-14.080594h23.803382a7.040297 7.040297 0 1 1 0 14.080594z" fill="#7ecafc"/><path d="m104.129089 524.92377c-.699186-7.821449-7.606601-13.593772-15.426808-12.894585a14.627028 14.627028 0 0 0 -9.558858 5.065685 13.660834 13.660834 0 0 0 -3.179249 10.316414 14.6084 14.6084 0 0 0 5.1402 9.558858 13.088321 13.088321 0 0 0 9.003731 3.381678h1.126398c7.818965-.700428 13.59253-7.606601 12.894586-15.42805zm-8.663453 11.405555a11.529744 11.529744 0 0 1 -12.756735-1.398373 10.561067 10.561067 0 0 1 -4.0523-7.801578 11.539679 11.539679 0 0 1 2.593074-8.488346 10.578453 10.578453 0 0 1 7.821449-4.053542h1.033256a11.447779 11.447779 0 0 1 11.508632 10.475376 11.52726 11.52726 0 0 1 -6.147376 11.266463zm1166.499889-371.907522c-.968677-10.820623-10.527536-18.809727-21.346916-17.84105a20.221761 20.221761 0 0 0 -13.223688 7.008008 18.901627 18.901627 0 0 0 -4.401272 14.27433 20.210584 20.210584 0 0 0 7.113569 13.224929 18.108057 18.108057 0 0 0 12.457439 4.679457h1.558577c10.819381-.964952 18.807243-10.522568 17.842291-21.345674zm-11.986761 15.781989a15.955855 15.955855 0 0 1 -17.652282-1.934871 14.6084 14.6084 0 0 1 -5.608393-10.794543 15.96579 15.96579 0 0 1 3.587832-11.745834 14.639447 14.639447 0 0 1 10.821864-5.608393h1.430662c8.279708-.074514 15.221895 6.241759 15.922324 14.494145a15.945919 15.945919 0 0 1 -8.502007 15.589496zm-1009.077401-82.214627a3.055059 3.055059 0 0 1 -3.05506-3.055059v-19.754809l-13.951437 13.95268a3.132057 3.132057 0 0 1 -4.428594-4.427353l13.955163-13.952679h-19.790823a3.06872 3.06872 0 1 1 0-6.138682h19.790823l-13.955163-13.786266a2.915967 2.915967 0 0 1 0-4.427352 2.914725 2.914725 0 0 1 2.215539-1.015869c.850697 0 1.656687.368843 2.213055 1.015869l13.951437 13.818555v-19.757292a3.051334 3.051334 0 0 1 4.693118-3.164346 3.04264 3.04264 0 0 1 1.277909 3.164346v19.757292l14.089288-13.953922a2.918451 2.918451 0 0 1 4.428594 0 2.918451 2.918451 0 0 1 0 4.427353l-13.956405 13.955163h19.75605a3.067478 3.067478 0 1 1 0 6.136198h-19.75605l13.955163 13.956406c.791086.787361 1.097834 1.94108.809715 3.021528a3.138266 3.138266 0 0 1 -2.213055 2.215539 3.134541 3.134541 0 0 1 -3.025254-.813441l-14.089288-13.984969v19.756051c.336553 1.71133-1.372293 3.053817-3.051334 3.053817h.136609zm-32.88287 836.144899h-8.443638v-8.44488c0-1.404582-1.136333-2.540915-2.540915-2.540915s-2.540915 1.136333-2.540915 2.540915v8.44488h-8.443638a2.539673 2.539673 0 1 0 0 5.08183h8.443638v8.443638a2.529738 2.529738 0 0 0 2.528496 2.526012l.02608-.109286a2.521045 2.521045 0 0 0 2.527254-2.528497v-8.330625h8.443638a2.542157 2.542157 0 0 0 0-5.083072zm998.385935-57.277395c0 16.738248-11.334767 29.903566-25.352025 29.903567 14.05824 0 25.352025 13.391343 25.352025 29.904808 0-16.740732 11.336009-29.904808 25.348299-29.904808-14.05824.001242-25.348299-13.386376-25.348299-29.903567zm0 0" fill="#ccc"/><path d="m988.198679 129.231493h-585.648663c-83.281414 0-150.445527 67.164113-150.445527 150.444285v586.993634c0 81.935201 67.164113 149.094346 150.445527 149.094347h586.992392c81.936443 0 149.095588-67.159146 149.095588-150.443044v-585.644937c-.001242-83.280172-67.160387-150.444285-150.439317-150.444285z" fill="#dfeff7"/><path d="m326.618131 866.669412v-586.993634c0-83.280172 67.164113-150.444285 150.445527-150.444285h-74.513642c-83.281414 0-150.445527 67.164113-150.445527 150.444285v586.993634c0 81.935201 67.164113 149.094346 150.445527 149.094347h74.513642c-83.281414 0-150.445527-67.159146-150.445527-149.094347z" fill="#c7e6f9"/><path d="m989.542408 1022.804056h-586.992392c-86.838198 0-157.485824-70.04034-157.485824-156.134644v-586.993634c0-42.158577 16.355744-81.732772 46.054398-111.431426s69.272849-46.054398 111.431426-46.054398h585.648663c42.157335 0 81.73153 16.355744 111.428942 46.054398 29.69617 29.698654 46.050673 69.271607 46.050673 111.431426v326.867752a7.040297 7.040297 0 1 1 -14.080595 0v-326.867752c0-79.072635-64.328869-143.403988-143.39902-143.403988h-585.648663c-79.073877 0-143.403988 64.330111-143.403988 143.403988v586.993634c0 78.327499 64.330111 142.054049 143.403988 142.054049h586.992392c78.328741 0 142.055291-64.330111 142.055291-143.402746v-51.587036a7.040297 7.040297 0 1 1 14.080595 0v51.587036c-.001242 86.836957-70.042824 157.483341-156.135886 157.483341z" fill="#7ecafc"/><path d="m1138.636754 709.003513a7.040297 7.040297 0 0 1 -7.040297-7.040297v-58.989966a7.040297 7.040297 0 1 1 14.080595 0v58.989966a7.040297 7.040297 0 0 1 -7.040298 7.040297zm-456.428346-231.604544c9.725272 9.726514 25.496085 9.726514 35.222598 0s9.726514-25.497326 0-35.22384-25.497326-9.726514-35.222598 0c-9.728998 9.725272-9.728998 25.497326 0 35.22384zm-2.574447 233.199136c9.833317 9.832075 25.776753 9.832075 35.61007 0 9.832075-9.833317 9.829591-25.776753-.002484-35.610069-9.833317-9.833317-25.776753-9.833317-35.610069 0-9.834559 9.834559-9.832075 25.776753.002483 35.610069zm0 0" fill="#7ecafc"/><path d="m797.333227 592.869035a25.123516 25.123516 0 1 0 35.530588-35.533072 25.126 25.126 0 0 0 -42.035629 11.263979 25.128484 25.128484 0 0 0 6.505041 24.269093zm0 0" fill="#fff"/><path d="m939.546238 787.02178h-96.855316c67.216273-46.005964 111.322139-123.338706 111.32214-211.00028 0-141.12387-114.420665-255.544535-255.544536-255.544535s-255.48865 114.420665-255.48865 255.544535c0 137.257854 108.219888 249.231988 244.014791 255.270077 1.086657.162688 2.226716.270733 3.425144.270733h249.126427c12.289783 0 22.296965-9.953781 22.296966-22.298207-.055885-12.289783-10.008424-22.242322-22.296966-22.242323zm-289.042143-376.488869c27.244671-27.245913 71.348054-27.245913 98.595209 0 27.244671 27.244671 27.244671 71.350538 0 98.595209-27.245913 27.247155-71.349296 27.247155-98.595209 0-27.19127-27.244671-27.19127-71.405181 0-98.595209zm-117.630961 216.223686c-27.244671-27.244671-27.244671-71.346812 0-98.593967 27.245913-27.244671 71.349296-27.244671 98.596451 0 27.244671 27.247155 27.244671 71.349296 0 98.593967-27.247155 27.245913-71.405181 27.245913-98.596451 0zm213.887684 115.291233c-27.244671 27.244671-71.346812 27.244671-98.596451 0-27.244671-27.245913-27.244671-71.349296 0-98.593967 27.249639-27.247155 71.35178-27.247155 98.596451 0 27.190028 27.244671 27.190028 71.402697 0 98.593967zm19.087911-117.628477c-27.245913-27.245913-27.245913-71.349296 0-98.596451 27.244671-27.244671 71.350538-27.244671 98.596451 0 27.244671 27.247155 27.244671 71.350538 0 98.596451-27.245913 27.190028-71.405181 27.190028-98.596451 0z" fill="#c7e6f9"/></svg>