<svg height="200" viewBox="0 0 1390 1024" width="271.484375" xmlns="http://www.w3.org/2000/svg"><path d="m1279.461328 1023.998758h-73.995772a7.040297 7.040297 0 1 1 0-14.080594h73.995772a7.040297 7.040297 0 1 1 0 14.080594zm-127.810766 0h-984.305341a7.040297 7.040297 0 1 1 0-14.080594h984.305341a7.040297 7.040297 0 1 1 0 14.080594zm-1016.38719 0h-23.803382a7.040297 7.040297 0 1 1 0-14.080594h23.803382a7.040297 7.040297 0 1 1 0 14.080594z" fill="#7ecafc"/><path d="m125.553003 496.232292c-.699186-7.821449-7.606601-13.593772-15.426808-12.894585a14.627028 14.627028 0 0 0 -9.558858 5.065685 13.660834 13.660834 0 0 0 -3.179249 10.316414 14.6084 14.6084 0 0 0 5.1402 9.558859 13.088321 13.088321 0 0 0 9.003731 3.381677h1.126398c7.818965-.700428 13.59253-7.606601 12.894586-15.42805zm-8.663453 11.405555a11.529744 11.529744 0 0 1 -12.756735-1.398372 10.561067 10.561067 0 0 1 -4.0523-7.801579 11.539679 11.539679 0 0 1 2.593074-8.488346 10.578453 10.578453 0 0 1 7.821449-4.053542h1.033256a11.447779 11.447779 0 0 1 11.508632 10.475377 11.529744 11.529744 0 0 1 -6.147376 11.266462zm1125.495032-380.120168c-.968677-10.820623-10.527536-18.809727-21.346916-17.841049a20.221761 20.221761 0 0 0 -13.223688 7.008008 18.901627 18.901627 0 0 0 -4.401273 14.27433 20.210584 20.210584 0 0 0 7.113569 13.224929 18.108057 18.108057 0 0 0 12.457439 4.679457h1.558577c10.818139-.966194 18.807243-10.522568 17.842292-21.345675zm-11.988003 15.78199a15.955855 15.955855 0 0 1 -17.652282-1.934871 14.6084 14.6084 0 0 1 -5.608393-10.794543 15.96579 15.96579 0 0 1 3.587832-11.745834 14.639447 14.639447 0 0 1 10.821864-5.608393h1.430662c8.279708-.074514 15.221895 6.241759 15.922324 14.494145a15.945919 15.945919 0 0 1 -8.502007 15.589496zm-1063.03273-39.859831a3.055059 3.055059 0 0 1 -3.055059-3.055059v-19.754809l-13.952679 13.95268a3.132057 3.132057 0 0 1 -4.428594-4.427353l13.955163-13.952679h-19.790824a3.06872 3.06872 0 1 1 0-6.138682h19.790824l-13.955163-13.786266a2.915967 2.915967 0 0 1 0-4.427352 2.914725 2.914725 0 0 1 2.215539-1.01587c.850697 0 1.656687.368843 2.213055 1.01587l13.951437 13.818555v-19.757292a3.051334 3.051334 0 0 1 4.693118-3.164346 3.04264 3.04264 0 0 1 1.277909 3.164346v19.757292l14.089288-13.953922a2.918451 2.918451 0 0 1 4.428594 0 2.918451 2.918451 0 0 1 0 4.427353l-13.955164 13.955163h19.756051a3.067478 3.067478 0 1 1 0 6.136198h-19.756051l13.955164 13.956405c.791086.787361 1.097834 1.94108.809715 3.021529a3.138266 3.138266 0 0 1 -2.213056 2.215539 3.134541 3.134541 0 0 1 -3.025253-.813441l-14.089288-13.984969v19.756051c.336553 1.71133-1.372293 3.053817-3.051334 3.053817h.136608zm24.491393 850.523548h-8.443638v-8.444879c0-1.404582-1.136333-2.540915-2.540915-2.540916s-2.540915 1.136333-2.540915 2.540916v8.444879h-8.443638a2.539673 2.539673 0 1 0 0 5.08183h8.443638v8.443638a2.529738 2.529738 0 0 0 2.528496 2.526012l.02608-.109286a2.521045 2.521045 0 0 0 2.527254-2.528497v-8.330625h8.443638a2.542157 2.542157 0 0 0 0-5.083072zm1039.898727-108.612327c0 16.738248-11.334767 29.903566-25.352025 29.903567 14.05824 0 25.352025 13.391343 25.352025 29.904808 0-16.740732 11.336009-29.904808 25.348299-29.904808-14.05824 0-25.348299-13.386376-25.348299-29.903567zm0 0" fill="#ccc"/><path d="m988.198679 129.231493h-585.648663c-83.281414 0-150.445527 67.164113-150.445527 150.444285v586.993634c0 81.935201 67.164113 149.094346 150.445527 149.094347h586.992392c81.936443 0 149.095588-67.159146 149.095588-150.443044v-585.644937c-.001242-83.280172-67.160387-150.444285-150.439317-150.444285z" fill="#dfeff7"/><path d="m326.618131 866.669412v-586.993634c0-83.280172 67.164113-150.444285 150.445527-150.444285h-74.513642c-83.281414 0-150.445527 67.164113-150.445527 150.444285v586.993634c0 81.935201 67.164113 149.094346 150.445527 149.094347h74.513642c-83.281414 0-150.445527-67.159146-150.445527-149.094347z" fill="#c7e6f9"/><path d="m989.542408 1022.804056h-586.992392c-86.838198 0-157.485824-70.04034-157.485824-156.134644v-586.993634c0-42.158577 16.355744-81.732772 46.054398-111.431426s69.272849-46.054398 111.431426-46.054398h585.648663c42.157335 0 81.73153 16.355744 111.428942 46.054398 29.69617 29.698654 46.050673 69.271607 46.050673 111.431426v326.867752a7.040297 7.040297 0 1 1 -14.080595 0v-326.867752c0-79.072635-64.328869-143.403988-143.39902-143.403988h-585.648663c-79.073877 0-143.403988 64.330111-143.403988 143.403988v586.993634c0 78.327499 64.330111 142.054049 143.403988 142.054049h586.992392c78.328741 0 142.055291-64.330111 142.055291-143.402746v-51.587036a7.040297 7.040297 0 1 1 14.080595 0v51.587036c-.001242 86.836957-70.042824 157.483341-156.135886 157.483341z" fill="#7ecafc"/><path d="m1138.636754 709.003513a7.040297 7.040297 0 0 1 -7.040297-7.040297v-58.989966a7.040297 7.040297 0 1 1 14.080595 0v58.989966a7.040297 7.040297 0 0 1 -7.040298 7.040297zm-555.738886 59.886615c0 40.99368 12.248801 0-24.878864 57.68101-22.181469 34.503542-74.234216-23.424605-74.234216-64.418286 0-41.030937 33.240536-74.259054 74.234216-74.259053 41.01355 0 24.878863 40.002649 24.878864 80.996329m375.772296-45.069577c0 40.989954 12.251285 0-24.877621 57.702123-22.182711 34.486155-74.232974-23.448201-74.232974-64.459268 0-40.99368 33.240536-74.254086 74.232974-74.254086 41.034663-.002484 24.877621 39.997681 24.877621 81.011231" fill="#7ecafc"/><path d="m505.104383 856.004026c-51.752208 0-93.835029-42.102692-93.835029-93.851174 0-51.749724 42.082821-93.856142 93.835029-93.856141 51.747241 0 93.851174 42.106417 93.851174 93.856141 0 51.748483-42.103933 93.851174-93.851174 93.851174zm0-148.511898c-30.124624 0-54.639612 24.518714-54.639611 54.661966 0 30.14201 24.514988 54.656998 54.639611 54.656999 30.14201 0 54.656998-24.514988 54.656999-54.656999-.001242-30.143252-24.51623-54.661966-54.656999-54.661966zm380.516332 102.447565c-51.747241 0-93.831304-42.103933-93.831303-93.856142 0-51.744757 42.084063-93.851174 93.831303-93.851174 51.752208 0 93.851174 42.106417 93.851174 93.851174 0 51.750966-42.098966 93.856142-93.851174 93.856142zm0-148.51314c-30.120898 0-54.635886 24.521198-54.635886 54.661966 0 30.14201 24.514988 54.656998 54.635886 54.656998 30.140768 0 54.661966-24.514988 54.661966-54.656998 0-30.143252-24.514988-54.661966-54.661966-54.661966zm0 0" fill="#b1ddfc"/><path d="m955.72315 706.171995c-10.8318 0-19.597088-8.76653-19.597088-19.597088v-312.578519c0-20.97559-16.551964-38.143533-37.280417-39.15816l-260.60277 56.801749c-21.606472 0-39.195418 17.588945-39.195417 39.196659v115.134754c0 10.8318-8.761562 19.597088-19.597088 19.597088-10.8318 0-19.597088-8.76653-19.597088-19.597088v-115.134754c0-42.467808 33.933513-77.146457 76.113201-78.353578l260.962919-56.876263c43.234057 0 78.390835 35.156778 78.390836 78.389593v312.578519c.001242 10.830558-8.765288 19.597088-19.597088 19.597088z" fill="#b1ddfc"/><path d="m579.455337 641.008573c-10.835525 0-19.597088-8.764046-19.597088-19.59833v-20.821595c0-10.829316 8.761562-19.594604 19.597088-19.594604 10.8318 0 19.59833 8.76653 19.59833 19.594604v20.821595c0 10.835525-8.76653 19.59833-19.59833 19.59833z" fill="#fff"/><path d="m579.455337 777.448019c-10.835525 0-19.597088-10.272947-19.597088-22.977523v-78.711244c0-12.703334 8.761562-22.980007 19.597088-22.980007 10.8318 0 19.59833 10.280399 19.59833 22.980007v78.711244c0 12.703334-8.76653 22.977523-19.59833 22.977523zm5.872917-233.928127c-8.955298 0-17.053689-6.182149-19.099088-15.292684-2.374501-10.564793 4.248519-21.051346 14.813312-23.424605l347.852035-78.385868c10.542438-2.354631 21.050104 4.244794 23.424605 14.809587 2.373259 10.563551-4.249761 21.051346-14.814554 23.424605l-347.850793 78.390835a19.648006 19.648006 0 0 1 -4.325517.47813zm0 0" fill="#b1ddfc"/></svg>